<svg xmlns="http://www.w3.org/2000/svg" viewBox="0 -0.5 16 16" shape-rendering="crispEdges">
<metadata>Made with Pixels to Svg http://codepen.io/shshaw/pen/XbxvNj</metadata>
<path stroke="#000000" d="M0 0h2M6 0h4M14 0h2M0 1h1M7 1h2M15 1h1M0 2h1M2 2h3M11 2h3M15 2h1M2 3h1M5 3h1M7 3h2M10 3h1M13 3h1M0 4h1M2 4h2M5 4h2M9 4h2M12 4h2M15 4h1M3 5h3M7 5h2M10 5h3M0 6h1M2 6h1M6 6h4M13 6h1M15 6h1M2 7h1M4 7h1M6 7h1M9 7h1M11 7h3M2 8h2M5 8h1M7 8h2M10 8h1M12 8h2M1 9h3M5 9h1M7 9h2M10 9h1M12 9h3M1 10h1M3 10h10M14 10h1M0 11h2M3 11h10M14 11h2M1 12h1M3 12h1M5 12h1M7 12h2M10 12h1M12 12h1M14 12h1M1 13h1M5 13h1M7 13h2M10 13h1M14 13h1M0 14h1M2 14h1M4 14h1M6 14h1M9 14h1M11 14h1M13 14h1M15 14h1M0 15h4M12 15h4" />
<path stroke="#0490a4" d="M2 0h4M10 0h4M1 1h1M5 1h2M9 1h2M14 1h1M6 2h4M14 2h1M0 3h1M3 3h2M6 3h1M11 3h2M14 3h2M1 4h1M7 4h2M14 4h1M0 5h3M6 5h1M9 5h1M13 5h3M1 6h1M3 6h3M10 6h3M14 6h1M0 7h2M5 7h1M7 7h2M10 7h1M14 7h2M0 8h1M4 8h1M6 8h1M9 8h1M11 8h1M15 8h1M2 10h1M13 10h1M2 11h1M13 11h1M2 12h1M13 12h1M2 13h3M6 13h1M9 13h1M11 13h3M3 14h1M5 14h1M7 14h2M10 14h1M12 14h1M4 15h8" />
<path stroke="#6eb6e4" d="M2 1h3M11 1h3M1 2h1M5 2h1M10 2h1M1 3h1M9 3h1M4 4h1M11 4h1M3 7h1M1 8h1M14 8h1M0 9h1M4 9h1M6 9h1M9 9h1M11 9h1M15 9h1M0 10h1M15 10h1M0 12h1M4 12h1M6 12h1M9 12h1M11 12h1M15 12h1M0 13h1M15 13h1M1 14h1M14 14h1" />
</svg>
