<svg xmlns="http://www.w3.org/2000/svg" viewBox="0 -0.5 16 16" shape-rendering="crispEdges">
<metadata>Made with Pixels to Svg http://codepen.io/shshaw/pen/XbxvNj</metadata>
<path stroke="#000000" d="M0 0h1M4 0h2M10 0h2M14 0h2M5 1h2M10 1h1M14 1h2M14 2h2M0 3h1M12 3h1M14 3h2M0 4h2M12 4h4M1 5h1M10 5h1M12 5h1M14 5h2M10 6h1M12 6h1M14 6h2M8 7h1M10 7h1M12 7h1M14 7h2M6 8h3M10 8h1M12 8h4M10 9h1M12 9h1M14 9h2M1 10h1M4 10h7M12 10h1M14 10h2M0 11h1M12 11h1M14 11h2M2 12h11M14 12h2M4 13h1M10 13h2M14 13h2M0 14h16M0 15h16" />
<path stroke="#6eb6e4" d="M1 0h3M6 0h4M12 0h2M0 1h1M0 2h1M2 2h11M2 3h1M2 4h1M4 4h7M0 5h1M2 5h1M4 5h1M0 6h1M2 6h1M4 6h1M6 6h3M0 7h1M2 7h1M4 7h1M6 7h1M0 8h1M2 8h1M4 8h1M0 9h1M2 9h1M4 9h1M9 9h1M0 10h1M2 10h1M2 11h1M11 11h1M0 12h1M0 13h1M13 13h1" />
<path stroke="#0490a4" d="M1 1h4M7 1h3M11 1h3M1 2h1M13 2h1M1 3h1M3 3h9M13 3h1M3 4h1M11 4h1M3 5h1M5 5h5M11 5h1M13 5h1M1 6h1M3 6h1M5 6h1M9 6h1M11 6h1M13 6h1M1 7h1M3 7h1M5 7h1M7 7h1M9 7h1M11 7h1M13 7h1M1 8h1M3 8h1M5 8h1M9 8h1M11 8h1M1 9h1M3 9h1M5 9h4M11 9h1M13 9h1M3 10h1M11 10h1M13 10h1M1 11h1M3 11h8M13 11h1M1 12h1M13 12h1M1 13h3M5 13h5M12 13h1" />
</svg>
