<svg xmlns="http://www.w3.org/2000/svg" viewBox="0 -0.5 16 16" shape-rendering="crispEdges">
<metadata>Made with Pixels to Svg http://codepen.io/shshaw/pen/XbxvNj</metadata>
<path stroke="#000000" d="M0 0h2M7 0h4M13 0h3M0 1h1M15 1h1M10 2h5M0 3h1M4 3h8M0 4h5M11 4h5M9 5h5M15 5h1M6 6h5M0 7h3M7 7h1M9 7h7M2 8h5M11 8h3M0 10h2M10 10h3M15 10h1M1 11h2M5 11h7M15 11h1M2 12h1M5 12h1M8 12h2M12 12h4M9 13h4M0 14h1M7 14h7M0 15h3M14 15h2" />
<path stroke="#6eb6e4" d="M2 0h5M11 0h2M1 1h4M7 1h4M0 2h3M1 3h3M5 4h3M0 5h5M0 8h2M7 8h2M2 9h5M2 10h8M0 11h1M1 12h1M2 13h2" />
<path stroke="#0490a4" d="M5 1h2M11 1h4M3 2h7M15 2h1M12 3h4M8 4h3M5 5h3M14 5h1M0 6h2M3 6h1M5 6h1M11 6h5M3 7h4M8 7h1M9 8h2M14 8h2M0 9h2M7 9h9M13 10h1M3 11h2M12 11h3M0 12h1M6 12h2M10 12h2M0 13h2M4 13h5M13 13h3M1 14h6M14 14h2M3 15h11" />
<path stroke="#0e879c" d="M8 5h1" />
<path stroke="#72afe0" d="M2 6h1" />
<path stroke="#7abbe7" d="M4 6h1" />
<path stroke="#0b8a9d" d="M14 10h1" />
<path stroke="#061210" d="M3 12h1" />
<path stroke="#09110d" d="M4 12h1" />
</svg>
