<svg xmlns="http://www.w3.org/2000/svg" viewBox="0 -0.5 64 48" shape-rendering="crispEdges">
<metadata>Made with Pixels to Svg http://codepen.io/shshaw/pen/XbxvNj</metadata>
<path stroke="#445dab" d="M14 0h1M15 1h1M13 9h1M13 10h1M50 12h1M11 15h1M49 18h1M12 19h1M14 19h1M50 19h1M48 20h1M15 27h1M13 28h1M49 28h1M51 28h1M14 29h1M52 32h1M13 35h1M50 37h1M50 38h1M48 46h1M49 47h1" />
<path stroke="#435caa" d="M15 0h1M49 0h1M49 1h2M12 2h1M48 2h1M50 2h2M11 3h1M15 3h1M11 4h1M48 4h1M51 4h1M51 5h2M14 6h1M49 6h1M52 6h1M52 7h1M9 8h1M11 8h1M13 8h1M15 8h1M48 8h2M12 9h1M53 9h2M49 10h1M13 11h2M50 11h2M10 12h1M12 12h1M54 12h1M11 13h1M48 13h1M51 13h1M8 14h1M15 14h1M50 14h1M55 14h1M8 15h3M54 15h1M9 32h1M53 32h3M8 33h1M13 33h1M48 33h1M55 33h1M12 34h1M15 34h1M52 34h1M9 35h1M51 35h1M53 35h1M12 36h2M49 36h2M14 37h1M9 38h2M51 38h1M14 39h2M48 39h1M50 39h1M52 39h1M54 39h1M11 40h1M11 41h1M14 41h1M49 41h1M11 42h2M12 43h1M15 43h1M52 43h1M48 44h1M52 44h1M12 45h2M15 45h1M51 45h1M13 46h2M14 47h1M48 47h1" />
<path stroke="#445daa" d="M48 0h1M13 1h1M48 1h1M49 2h1M48 3h1M51 3h1M15 4h1M10 5h2M15 5h1M48 5h1M53 5h1M10 6h2M15 6h1M48 6h1M53 6h1M10 7h2M13 7h1M15 7h1M53 7h1M10 8h1M14 8h1M50 8h1M52 8h1M54 8h1M10 9h1M14 9h2M48 9h4M9 10h1M12 10h1M14 10h1M48 10h1M51 10h1M53 10h2M10 11h1M12 11h1M15 11h1M48 11h1M52 11h2M11 12h1M13 12h3M48 12h2M51 12h3M9 13h2M12 13h4M49 13h2M52 13h1M54 13h1M9 14h1M12 14h3M48 14h2M51 14h3M12 15h1M14 15h1M48 15h6M10 16h4M48 16h2M51 16h3M55 16h1M9 17h2M12 17h1M14 17h2M48 17h2M52 17h2M9 18h3M14 18h1M50 18h3M54 18h1M9 19h1M11 19h1M13 19h1M15 19h1M51 19h5M8 20h2M11 20h1M13 20h1M15 20h1M49 20h3M53 20h1M9 21h1M13 21h1M15 21h1M51 21h2M54 21h2M8 22h1M10 22h1M12 22h3M49 22h1M52 22h3M8 23h1M10 23h4M50 23h2M53 23h3M8 24h3M12 24h2M50 24h4M55 24h1M9 25h3M14 25h1M49 25h3M53 25h1M55 25h1M8 26h2M11 26h2M48 26h1M50 26h1M54 26h1M10 27h1M12 27h3M48 27h1M50 27h1M52 27h1M54 27h2M8 28h5M48 28h1M50 28h1M52 28h1M54 28h1M9 29h1M11 29h3M49 29h1M52 29h3M10 30h2M14 30h2M48 30h2M51 30h1M53 30h2M8 31h1M10 31h3M14 31h2M50 31h4M10 32h6M49 32h1M51 32h1M10 33h3M14 33h2M49 33h3M54 33h1M9 34h1M11 34h1M13 34h2M48 34h4M53 34h2M10 35h3M14 35h2M48 35h3M52 35h1M10 36h2M15 36h1M48 36h1M51 36h1M53 36h1M9 37h2M12 37h1M15 37h1M49 37h1M51 37h1M54 37h1M12 38h4M48 38h2M53 38h1M9 39h1M11 39h1M13 39h1M49 39h1M53 39h1M10 40h1M48 40h1M50 40h1M52 40h2M10 41h1M15 41h1M48 41h1M52 41h2M10 42h1M15 42h1M48 42h1M52 42h2M48 43h1M12 44h1M15 44h1M14 45h1M15 46h1M50 46h1M15 47h1" />
<path stroke="#435daa" d="M14 1h1M13 2h3M12 3h1M52 3h1M12 4h1M52 4h1M12 5h1M48 7h1M50 7h1M53 8h1M9 9h1M10 10h1M15 10h1M50 10h1M9 11h1M11 11h1M49 11h1M54 11h1M9 12h1M53 13h1M10 14h2M54 14h1M13 15h1M15 15h1M55 15h1M8 32h1M48 32h1M50 32h1M9 33h1M52 33h2M10 34h1M54 35h1M9 36h1M14 36h1M52 36h1M54 36h1M13 37h1M48 37h1M53 37h1M54 38h1M10 39h1M13 40h1M15 40h1M51 42h1M11 43h1M51 43h1M11 44h1M51 44h1M48 45h3M49 46h1" />
<path stroke="#5268b0" d="M13 3h1M50 3h1M13 44h1M50 44h1" />
<path stroke="#ffffff" d="M14 3h1M49 3h1M13 4h2M49 4h2M13 5h2M49 5h2M12 6h2M50 6h2M12 7h1M51 7h1M12 8h1M51 8h1M11 9h1M52 9h1M11 10h1M52 10h1M11 37h1M52 37h1M11 38h1M52 38h1M12 39h1M51 39h1M12 40h1M51 40h1M12 41h2M50 41h2M13 42h2M49 42h2M13 43h2M49 43h2M14 44h1M49 44h1" />
<path stroke="#3b57a7" d="M14 7h1M49 40h1" />
<path stroke="#3b58a7" d="M49 7h1M14 40h1" />
<path stroke="#455eab" d="M8 16h2M14 16h2M50 16h1M54 16h1M8 17h1M11 17h1M50 17h2M55 17h1M8 18h1M12 18h2M53 18h1M55 18h1M8 19h1M10 19h1M48 19h2M10 20h1M12 20h1M14 20h1M52 20h1M54 20h2M8 21h1M10 21h3M14 21h1M49 21h2M53 21h1M9 22h1M11 22h1M15 22h1M48 22h1M50 22h2M55 22h1M9 23h1M14 23h2M48 23h2M52 23h1M11 24h1M14 24h2M48 24h2M54 24h1M8 25h1M12 25h2M15 25h1M48 25h1M52 25h1M54 25h1M10 26h1M13 26h2M49 26h1M51 26h3M55 26h1M8 27h2M11 27h1M49 27h1M51 27h1M53 27h1M14 28h2M53 28h1M55 28h1M8 29h1M10 29h1M50 29h2M55 29h1M8 30h1M12 30h2M52 30h1M55 30h1M9 31h1M13 31h1M48 31h2M54 31h2" />
<path stroke="#455dab" d="M13 17h1M54 17h1M9 30h1M50 30h1" />
<path stroke="#4c5ba9" d="M15 18h1M48 29h1" />
<path stroke="#4d5ba8" d="M48 18h1M15 29h1" />
<path stroke="#4d5ba9" d="M48 21h1M15 26h1" />
</svg>
