<svg xmlns="http://www.w3.org/2000/svg" viewBox="0 -0.5 16 16" shape-rendering="crispEdges">
<metadata>Made with Pixels to Svg http://codepen.io/shshaw/pen/XbxvNj</metadata>
<path stroke="#de5326" d="M0 0h1M2 0h2M7 0h1M13 0h1M15 0h1M3 1h2M6 1h1M8 1h1M11 1h1M14 1h2M0 2h2M3 2h1M5 2h3M9 2h2M14 2h1M1 3h1M5 3h1M10 3h1M12 3h2M2 4h1M5 4h3M10 4h1M15 4h1M0 5h1M5 5h1M11 5h2M1 6h1M9 6h1M13 6h1M1 7h1M8 7h2M12 7h1M15 7h1M3 8h1M5 8h1M7 8h1M13 8h3M2 9h2M6 9h1M8 9h1M10 9h2M15 9h1M0 10h1M3 10h1M6 10h1M14 10h2M1 11h2M4 11h2M7 11h4M15 11h1M2 12h1M7 12h1M1 13h2M4 13h1M6 13h2M2 14h1M10 14h4" />
<path stroke="#dd5226" d="M1 0h1M4 0h3M9 0h4M7 1h1M10 1h1M2 2h1M11 2h3M0 3h1M2 3h1M4 3h1M7 3h3M11 3h1M14 3h2M0 4h2M4 4h1M8 4h2M14 4h1M3 5h2M7 5h4M13 5h3M2 6h2M6 6h1M10 6h3M14 6h2M0 7h1M2 7h1M4 7h2M10 7h2M13 7h1M0 8h3M6 8h1M9 8h1M12 8h1M0 9h1M14 9h1M2 10h1M4 10h2M7 10h4M12 10h1M0 11h1M11 11h1M13 11h2M0 12h1M4 12h1M8 12h1M10 12h1M14 12h2M0 13h1M3 13h1M5 13h1M9 13h6M3 14h4M9 14h1M15 14h1M0 15h2M3 15h1M5 15h1M8 15h1M10 15h4M15 15h1" />
<path stroke="#df5426" d="M8 0h1M0 1h1M2 1h1M12 1h1M4 2h1M8 2h1M15 2h1M3 3h1M6 3h1M13 4h1M1 5h2M6 5h1M4 6h2M7 6h1M7 7h1M4 8h1M8 8h1M10 8h2M4 9h1M12 9h1M11 10h1M13 10h1M3 11h1M6 11h1M12 11h1M1 12h1M6 12h1M9 12h1M12 12h2M8 13h1M15 13h1M1 14h1M14 14h1M2 15h1M4 15h1M7 15h1M9 15h1" />
<path stroke="#df5326" d="M14 0h1M12 4h1M3 7h1M7 9h1M1 10h1M5 12h1M7 14h1" />
<path stroke="#4f65af" d="M1 1h1M0 6h1M8 6h1M5 9h1M9 9h1M13 9h1M3 12h1M11 12h1M8 14h1M6 15h1M14 15h1" />
<path stroke="#4e64af" d="M5 1h1M9 1h1M13 1h1M3 4h1M11 4h1M6 7h1M14 7h1M1 9h1M0 14h1" />
</svg>
