<svg xmlns="http://www.w3.org/2000/svg" viewBox="0 -0.5 32 16" shape-rendering="crispEdges">
<metadata>Made with Pixels to Svg http://codepen.io/shshaw/pen/XbxvNj</metadata>
<path stroke="#a9f6f5" d="M7 1h1M24 1h1M2 2h1M12 2h1M19 2h1M29 2h1M3 3h1M6 3h1M8 3h1M11 3h1M20 3h1M23 3h1M25 3h1M28 3h1M4 4h1M10 4h1M21 4h1M27 4h1M0 6h1M14 6h1M17 6h1M31 6h1M2 7h1M13 7h1M18 7h1M29 7h1M5 10h1M10 10h1M13 10h1M18 10h1M21 10h1M26 10h1M5 11h2M9 11h2M21 11h2M25 11h2M5 14h1M10 14h1M21 14h1M26 14h1M6 15h1M9 15h1M22 15h1M25 15h1" />
<path stroke="#fea749" d="M7 2h1M24 2h1M2 3h1M7 3h1M12 3h1M19 3h1M24 3h1M29 3h1M2 4h2M6 4h3M11 4h2M19 4h2M23 4h3M28 4h2M3 5h9M20 5h9M3 6h9M20 6h9M0 7h2M3 7h10M14 7h1M17 7h1M19 7h10M30 7h2M1 8h4M11 8h3M18 8h3M27 8h4M2 9h2M6 9h4M12 9h1M19 9h1M22 9h4M28 9h2M1 10h2M7 10h2M23 10h2M29 10h2M2 11h1M13 11h1M18 11h1M29 11h2M3 12h2M7 12h1M11 12h2M19 12h2M24 12h1M27 12h2" />
<path stroke="#000000" d="M5 8h6M21 8h6M4 9h2M10 9h2M20 9h2M26 9h2M4 10h1M6 10h1M9 10h1M11 10h2M19 10h2M22 10h1M25 10h1M27 10h2M3 11h2M7 11h2M11 11h2M19 11h2M23 11h2M28 11h1M5 12h2M21 12h2M25 12h2" />
<path stroke="#000001" d="M3 10h1" />
<path stroke="#53cc5a" d="M15 10h2M1 11h1M14 11h1M17 11h1M0 12h1M8 12h1M23 12h1M31 12h1M0 13h1M3 13h1M8 13h1M12 13h1M19 13h1M23 13h1M28 13h1M31 13h1M3 14h1M13 14h2M17 14h2M28 14h1M4 15h1M27 15h1" />
<path stroke="#251714" d="M27 11h1" />
<path stroke="#151c20" d="M9 12h1" />
<path stroke="#0d0000" d="M10 12h1" />
</svg>
