<svg xmlns="http://www.w3.org/2000/svg" viewBox="0 -0.5 16 64" shape-rendering="crispEdges">
<metadata>Made with Pixels to Svg http://codepen.io/shshaw/pen/XbxvNj</metadata>
<path stroke="#000000" d="M0 0h3M4 0h7M12 0h4M0 1h5M6 1h2M9 1h7M0 2h6M7 2h2M10 2h2M13 2h3M1 3h5M7 3h9M1 4h4M7 4h9M0 5h16M0 6h9M10 6h3M14 6h2M0 7h6M7 7h7M15 7h1M0 8h1M2 8h3M6 8h1M8 8h1M10 8h3M14 8h1M2 9h1M4 9h1M10 9h1M12 9h1" />
<path stroke="#010101" d="M3 0h1M11 0h1M5 1h1M8 1h1M6 2h1M9 2h1M12 2h1M0 3h1M6 3h1M0 4h1M5 4h2M9 6h1M13 6h1M6 7h1M14 7h1" />
<path stroke="#de5326" d="M1 8h1M13 8h1M5 9h1M7 9h2M2 10h1M6 10h2M11 10h1M14 10h1M0 11h1M6 11h1M11 11h1M0 12h2M4 12h1M9 12h4M2 13h1M5 13h1M7 13h1M11 13h1M14 13h1M3 14h1M7 14h2M10 14h1M15 14h1M0 15h1M9 15h2M12 15h1M14 15h1" />
<path stroke="#df5426" d="M5 8h1M7 8h1M9 8h1M15 8h1M15 9h1M1 10h1M3 10h1M9 10h2M4 11h1M9 11h2M15 11h1M3 12h1M5 12h1M15 12h1M3 13h2M6 13h1M9 13h1M11 14h2M1 15h2M4 15h1M11 15h1" />
<path stroke="#dd5226" d="M0 9h2M3 9h1M6 9h1M9 9h1M11 9h1M13 9h2M4 10h2M8 10h1M12 10h2M15 10h1M1 11h3M5 11h1M7 11h2M12 11h3M2 12h1M7 12h2M13 12h1M0 13h2M8 13h1M10 13h1M12 13h2M15 13h1M0 14h1M2 14h1M4 14h3M13 14h1M3 15h1M6 15h3M15 15h1" />
<path stroke="#df5326" d="M0 10h1M14 14h1" />
<path stroke="#4e64af" d="M6 12h1M14 12h1" />
<path stroke="#4f65af" d="M1 14h1M9 14h1M5 15h1M13 15h1" />
</svg>
