<svg xmlns="http://www.w3.org/2000/svg" viewBox="0 -0.5 16 16" shape-rendering="crispEdges">
<metadata>Made with Pixels to Svg http://codepen.io/shshaw/pen/XbxvNj</metadata>
<path stroke="#000000" d="M0 0h4M6 0h10M0 1h2M4 1h2M7 1h4M14 1h2M0 2h1M8 2h2M11 2h1M15 2h1M0 3h1M2 3h1M9 3h2M15 3h1M3 4h4M8 4h4M14 4h1M1 5h1M9 5h2M15 5h1M5 6h3M12 6h1M1 7h3M7 7h2M10 7h1M13 7h2M2 8h5M11 8h3M0 10h2M10 10h3M15 10h1M1 11h2M5 11h7M15 11h1M2 12h4M8 12h2M12 12h4M9 13h4M0 14h1M7 14h7M0 15h3M14 15h2" />
<path stroke="#6eb6e4" d="M4 0h2M2 1h2M6 1h1M12 1h2M1 2h4M7 2h1M12 2h1M1 3h1M6 3h3M11 3h1M14 3h1M0 4h1M7 4h1M12 4h2M15 4h1M0 5h1M2 5h3M8 5h1M13 5h2M0 6h1M8 6h4M14 6h2M0 7h1M4 7h3M11 7h2M15 7h1M0 8h2M7 8h2M2 9h5M3 10h7M0 11h1M0 12h2M1 13h3" />
<path stroke="#050508" d="M11 1h1" />
<path stroke="#0490a4" d="M5 2h2M13 2h2M3 3h3M12 3h2M1 4h2M5 5h3M11 5h2M1 6h4M13 6h1M9 7h1M9 8h2M14 8h2M0 9h2M7 9h9M2 10h1M13 10h2M3 11h2M12 11h3M6 12h2M10 12h2M0 13h1M4 13h5M13 13h3M1 14h6M14 14h2M3 15h11" />
<path stroke="#040306" d="M10 2h1" />
</svg>
