<svg xmlns="http://www.w3.org/2000/svg" viewBox="0 -0.5 16 16" shape-rendering="crispEdges">
<metadata>Made with Pixels to Svg http://codepen.io/shshaw/pen/XbxvNj</metadata>
<path stroke="#000000" d="M0 0h1M8 0h1M10 0h1M13 0h3M0 1h1M8 1h1M10 1h1M13 1h3M0 2h1M8 2h1M10 2h1M13 2h3M0 3h1M8 3h1M10 3h1M13 3h3M0 4h1M8 4h1M10 4h1M13 4h3M0 5h1M8 5h1M10 5h1M13 5h3M0 6h1M8 6h1M10 6h1M13 6h3M0 7h1M8 7h1M10 7h1M13 7h3M0 8h1M8 8h1M10 8h1M13 8h3M0 9h1M8 9h1M10 9h1M13 9h3M0 10h1M8 10h1M10 10h1M13 10h3M0 11h1M8 11h1M10 11h1M13 11h3M0 12h1M8 12h1M10 12h1M13 12h3M0 13h1M8 13h1M10 13h1M13 13h3M0 14h1M8 14h1M10 14h1M13 14h3M0 15h1M8 15h1M10 15h1M13 15h3" />
<path stroke="#0490a4" d="M1 0h3M6 0h2M11 0h2M1 1h3M6 1h2M11 1h2M1 2h3M6 2h2M11 2h2M1 3h3M6 3h2M11 3h2M1 4h3M6 4h2M11 4h2M1 5h3M6 5h2M11 5h2M1 6h3M6 6h2M11 6h2M1 7h3M6 7h2M11 7h2M1 8h3M6 8h2M11 8h2M1 9h3M6 9h2M11 9h2M1 10h3M6 10h2M11 10h2M1 11h3M6 11h2M11 11h2M1 12h3M6 12h2M11 12h2M1 13h3M6 13h2M11 13h2M1 14h3M6 14h2M11 14h2M1 15h3M6 15h2M11 15h2" />
<path stroke="#6eb6e4" d="M4 0h2M4 1h2M4 2h2M4 3h2M4 4h2M4 5h2M4 6h2M4 7h2M4 8h2M4 9h2M4 10h2M4 11h2M4 12h2M4 13h2M4 14h2M4 15h2" />
<path stroke="#0090a4" d="M9 0h1M9 1h1M9 2h1M9 3h1M9 4h1M9 5h1M9 6h1M9 7h1M9 8h1M9 9h1M9 10h1M9 11h1M9 12h1M9 13h1M9 14h1M9 15h1" />
</svg>
