<svg xmlns="http://www.w3.org/2000/svg" viewBox="0 -0.5 16 16" shape-rendering="crispEdges">
<metadata>Made with Pixels to Svg http://codepen.io/shshaw/pen/XbxvNj</metadata>
<path stroke="#000000" d="M0 0h1M15 0h1M0 1h1M11 1h1M15 1h1M0 2h1M15 2h1M0 3h16M0 4h3M10 4h2M14 4h2M0 5h3M10 5h2M14 5h2M0 6h3M10 6h2M14 6h2M0 7h3M10 7h2M15 7h1M0 8h1M11 8h2M15 8h1M0 9h1M11 9h2M15 9h1M0 10h1M11 10h2M15 10h1M0 11h16M0 12h3M13 12h3M0 13h3M13 13h3M0 14h3M13 14h3M0 15h3M13 15h3" />
<path stroke="#344ba0" d="M1 0h2M4 0h7M13 0h2M1 1h2M4 1h7M13 1h2M1 2h2M4 2h7M13 2h2M3 4h1M5 4h5M12 4h1M3 5h1M5 5h5M12 5h1M3 6h1M5 6h5M12 6h1M3 7h1M5 7h5M12 7h1M1 8h2M4 8h7M13 8h2M1 9h2M4 9h7M13 9h2M1 10h2M4 10h7M13 10h2M3 12h1M5 12h1M8 12h1M12 12h1M3 13h1M5 13h5M12 13h1M3 14h1M5 14h5M12 14h1M3 15h1M5 15h5M12 15h1" />
<path stroke="#6eb6e4" d="M3 0h1M3 1h1M3 2h1M4 4h1M4 5h1M4 6h1M4 7h1M3 8h1M3 9h1M3 10h1M4 12h1M4 13h1M4 14h1M4 15h1" />
<path stroke="#0a1615" d="M11 0h1" />
<path stroke="#07070d" d="M12 0h1" />
<path stroke="#0c0d17" d="M12 1h1" />
<path stroke="#030202" d="M11 2h1" />
<path stroke="#020203" d="M12 2h1" />
<path stroke="#060404" d="M13 4h1" />
<path stroke="#0c0e11" d="M13 5h1" />
<path stroke="#0b0b08" d="M13 6h1" />
<path stroke="#10101b" d="M13 7h1" />
<path stroke="#030304" d="M14 7h1" />
<path stroke="#384ea1" d="M6 12h1" />
<path stroke="#3a50a3" d="M7 12h1" />
<path stroke="#2f459c" d="M9 12h1" />
<path stroke="#010101" d="M10 12h1" />
<path stroke="#0d1026" d="M11 12h1" />
<path stroke="#040202" d="M10 13h1M10 14h1" />
<path stroke="#0d112e" d="M11 13h1" />
<path stroke="#0f122e" d="M11 14h1" />
<path stroke="#050303" d="M10 15h1" />
<path stroke="#0d0d21" d="M11 15h1" />
</svg>
