<svg xmlns="http://www.w3.org/2000/svg" viewBox="0 -0.5 16 16" shape-rendering="crispEdges">
<metadata>Made with Pixels to Svg http://codepen.io/shshaw/pen/XbxvNj</metadata>
<path stroke="#000000" d="M0 0h3M13 0h3M0 1h3M13 1h3M0 2h3M13 2h3M0 3h3M13 3h3M1 4h2M14 4h2M0 5h3M14 5h2M0 6h3M13 6h3M0 7h3M13 7h2M0 8h3M13 8h3M0 9h3M13 9h3M0 10h3M13 10h3M0 11h1M2 11h1M13 11h3M0 12h3M13 12h3M0 13h2M13 13h3M0 14h3M13 14h3M0 15h2M13 15h3" />
<path stroke="#7f7f7f" d="M3 0h1M9 0h1M3 1h1M9 2h1M12 2h1M3 3h1M11 3h1M11 4h2M9 5h1M11 5h2M3 6h1M11 6h1M9 7h1M12 7h1M3 8h1M9 8h1M3 9h1M11 9h2M3 10h1M11 10h2M3 11h1M3 12h1M9 12h1M3 13h1M9 13h1M12 13h1M3 14h1M12 14h1M9 15h1M11 15h1" />
<path stroke="#bcbcbc" d="M4 0h2M7 0h2M10 0h1M4 1h2M7 1h2M10 1h1M4 2h2M8 2h1M5 3h1M7 3h2M4 4h2M8 4h1M10 4h1M4 5h2M7 5h2M10 5h1M4 6h2M10 6h1M7 7h2M4 8h2M7 8h2M4 9h2M7 9h2M10 9h1M4 10h1M7 10h2M10 10h1M4 11h1M8 11h1M4 12h1M7 12h1M10 12h1M8 13h1M10 13h1M4 14h2M7 14h1M10 14h1M4 15h2M7 15h2M10 15h1" />
<path stroke="#ffffff" d="M6 0h1M6 1h1M6 2h1M6 3h1M6 4h1M6 5h1M6 6h1M6 7h1M6 8h1M6 9h1M6 10h1M6 11h1M6 12h1M6 13h1M6 14h1M6 15h1" />
<path stroke="#808080" d="M11 0h1M9 1h1M11 1h2M11 2h1M12 3h1M12 6h1M3 7h1M11 8h1M11 11h2" />
<path stroke="#807f7f" d="M12 0h1M3 2h1M9 3h1M3 4h1M9 4h1M3 5h1M9 6h1M11 7h1M12 8h1M9 9h1M9 10h1M9 11h1M11 12h2M11 13h1M9 14h1M11 14h1M3 15h1M12 15h1" />
<path stroke="#bdbdbd" d="M7 2h1M4 3h1M10 3h1M7 6h1M4 7h1M10 8h1M5 11h1M10 11h1M5 12h1M8 12h1M5 13h1M7 13h1M8 14h1" />
<path stroke="#bcbcbd" d="M10 2h1M7 4h1M8 6h1M5 7h1M10 7h1M5 10h1M7 11h1M4 13h1" />
<path stroke="#010101" d="M0 4h1M13 4h1M13 5h1M15 7h1M1 11h1M2 13h1M2 15h1" />
</svg>
