<svg xmlns="http://www.w3.org/2000/svg" viewBox="0 -0.5 16 16" shape-rendering="crispEdges">
<metadata>Made with Pixels to Svg http://codepen.io/shshaw/pen/XbxvNj</metadata>
<path stroke="#000000" d="M0 0h1M14 0h2M8 2h1M14 4h1M12 7h1M12 12h1M15 13h1M0 14h1M14 14h2M0 15h2M4 15h1M8 15h1M11 15h1M13 15h3" />
<path stroke="#0a1331" d="M1 0h1" />
<path stroke="#67a2fd" d="M2 0h2M5 0h2M8 0h5M1 1h2M5 1h3M9 1h4M0 2h2M0 3h2M0 4h2M0 5h2M0 6h1M1 7h1M0 8h2M0 9h2M1 10h1M0 11h1M0 12h2M1 13h1" />
<path stroke="#0a0808" d="M4 0h1" />
<path stroke="#181c2d" d="M7 0h1" />
<path stroke="#0c0e0f" d="M13 0h1" />
<path stroke="#0c122e" d="M0 1h1" />
<path stroke="#111529" d="M3 1h1" />
<path stroke="#050623" d="M4 1h1" />
<path stroke="#18203c" d="M8 1h1" />
<path stroke="#128295" d="M13 1h1M13 2h2M13 4h1M13 5h2M13 6h2M13 7h2M13 8h2M13 9h2M13 10h1M14 11h1M13 12h2M2 13h1M4 13h3M8 13h4M13 13h1M2 14h2M5 14h3M9 14h2M12 14h1" />
<path stroke="#031213" d="M14 1h1" />
<path stroke="#020101" d="M15 1h1" />
<path stroke="#100e1e" d="M2 2h1" />
<path stroke="#2653f3" d="M3 2h5M10 2h2M3 3h4M9 3h4M2 4h3M7 4h6M2 5h2M6 5h7M4 6h2M7 6h1M12 6h1M3 7h3M9 7h2M2 8h5M8 8h4M2 9h5M8 9h5M2 10h4M7 10h6M3 11h2M6 11h6M4 12h1M7 12h4" />
<path stroke="#060731" d="M9 2h1" />
<path stroke="#0d192c" d="M12 2h1" />
<path stroke="#0c0d1c" d="M15 2h1" />
<path stroke="#070527" d="M2 3h1" />
<path stroke="#040217" d="M7 3h1" />
<path stroke="#030523" d="M8 3h1" />
<path stroke="#06100e" d="M13 3h1" />
<path stroke="#010404" d="M14 3h1" />
<path stroke="#05091d" d="M15 3h1" />
<path stroke="#020000" d="M5 4h1" />
<path stroke="#080b3d" d="M6 4h1" />
<path stroke="#020011" d="M15 4h1" />
<path stroke="#070516" d="M4 5h1" />
<path stroke="#00000c" d="M5 5h1" />
<path stroke="#0c1024" d="M15 5h1" />
<path stroke="#1a202f" d="M1 6h1" />
<path stroke="#030000" d="M2 6h1M7 8h1" />
<path stroke="#050938" d="M3 6h1" />
<path stroke="#091141" d="M6 6h1" />
<path stroke="#080509" d="M8 6h1" />
<path stroke="#060621" d="M9 6h1" />
<path stroke="#070613" d="M10 6h1" />
<path stroke="#050022" d="M11 6h1" />
<path stroke="#10182e" d="M15 6h1" />
<path stroke="#16224d" d="M0 7h1" />
<path stroke="#111632" d="M2 7h1" />
<path stroke="#060405" d="M6 7h1" />
<path stroke="#030100" d="M7 7h1" />
<path stroke="#020420" d="M8 7h1" />
<path stroke="#040000" d="M11 7h1" />
<path stroke="#030303" d="M15 7h1" />
<path stroke="#050b0c" d="M12 8h1" />
<path stroke="#0a0e1e" d="M15 8h1" />
<path stroke="#090c34" d="M7 9h1" />
<path stroke="#0a0c1a" d="M15 9h1" />
<path stroke="#141d36" d="M0 10h1" />
<path stroke="#0d144f" d="M6 10h1" />
<path stroke="#071009" d="M14 10h1" />
<path stroke="#030405" d="M15 10h1" />
<path stroke="#1b1c20" d="M1 11h1" />
<path stroke="#020012" d="M2 11h1" />
<path stroke="#090011" d="M5 11h1" />
<path stroke="#050207" d="M12 11h1" />
<path stroke="#021c21" d="M13 11h1" />
<path stroke="#11213b" d="M15 11h1" />
<path stroke="#060200" d="M2 12h1" />
<path stroke="#00002b" d="M3 12h1" />
<path stroke="#040d03" d="M5 12h1" />
<path stroke="#060931" d="M6 12h1" />
<path stroke="#081014" d="M11 12h1" />
<path stroke="#0c1022" d="M15 12h1" />
<path stroke="#121130" d="M0 13h1" />
<path stroke="#011610" d="M3 13h1" />
<path stroke="#092030" d="M7 13h1" />
<path stroke="#06282e" d="M12 13h1" />
<path stroke="#081112" d="M14 13h1" />
<path stroke="#030e16" d="M1 14h1" />
<path stroke="#06140d" d="M4 14h1" />
<path stroke="#06140a" d="M8 14h1" />
<path stroke="#062329" d="M11 14h1" />
<path stroke="#070e0f" d="M13 14h1" />
<path stroke="#000607" d="M2 15h1" />
<path stroke="#030c0f" d="M3 15h1" />
<path stroke="#010202" d="M5 15h1" />
<path stroke="#01080a" d="M6 15h1" />
<path stroke="#010b0c" d="M7 15h1" />
<path stroke="#000305" d="M9 15h1" />
<path stroke="#020203" d="M10 15h1" />
<path stroke="#02090b" d="M12 15h1" />
</svg>
