<svg xmlns="http://www.w3.org/2000/svg" viewBox="0 -0.5 160 32" shape-rendering="crispEdges">
<metadata>Made with Pixels to Svg http://codepen.io/shshaw/pen/XbxvNj</metadata>
<path stroke="#de5326" d="M14 0h1M14 1h2M14 2h1M16 2h1M18 2h1M16 3h2M12 4h1M10 5h1M12 5h3M16 5h1M18 6h1M18 8h1M18 10h1M15 12h1M17 12h1M15 13h1M19 13h1M19 14h3M19 15h1M46 19h1M46 20h1M19 22h1M41 22h3M45 22h2M39 23h3M13 24h1M38 24h2M14 25h1M38 25h2M8 26h1M42 26h2M10 27h1M17 27h1M38 27h1M41 27h2M8 28h1M14 28h2M38 28h4M19 29h1M38 29h3M42 29h2M11 30h1M18 30h1M20 30h1M39 30h1M41 30h3M9 31h2" />
<path stroke="#df5426" d="M15 0h2M12 1h1M16 1h1M14 3h1M10 4h1M15 4h1M17 4h1M17 5h1M16 13h1M18 13h1M15 24h1M18 28h1M7 29h1M10 30h1M15 30h1M17 30h1M11 31h1" />
<path stroke="#dd5226" d="M46 0h3M78 0h3M110 0h3M142 0h3M13 1h1M17 1h2M44 1h7M76 1h7M108 1h7M140 1h7M11 2h1M13 2h1M15 2h1M17 2h1M19 2h1M43 2h1M45 2h7M75 2h1M77 2h7M107 2h1M109 2h7M139 2h1M141 2h7M12 3h2M42 3h1M44 3h3M48 3h2M74 3h1M76 3h3M80 3h2M106 3h1M108 3h3M112 3h2M138 3h1M140 3h3M144 3h2M14 4h1M42 4h6M49 4h1M74 4h6M81 4h1M106 4h6M113 4h1M138 4h6M145 4h1M42 5h2M46 5h1M48 5h2M74 5h5M80 5h2M106 5h5M112 5h2M138 5h2M142 5h1M144 5h2M17 6h1M43 6h1M48 6h3M79 6h4M107 6h8M139 6h1M144 6h3M18 7h1M20 7h1M49 7h4M80 7h5M112 7h5M145 7h4M49 8h3M82 8h3M112 8h3M145 8h3M50 9h1M83 9h1M102 9h2M111 9h1M113 9h1M144 9h1M146 9h1M17 10h1M15 11h1M19 11h1M41 11h2M47 11h3M137 11h2M143 11h3M16 12h1M41 12h1M46 12h2M137 12h1M142 12h2M20 13h1M46 13h1M84 13h1M142 13h1M47 14h2M84 14h1M143 14h2M18 15h1M21 15h1M83 15h1M110 15h1M135 15h2M147 15h1M84 16h1M133 16h1M135 16h2M146 16h1M83 17h1M100 17h3M132 17h3M136 17h2M100 18h3M131 18h4M136 18h1M98 19h2M101 19h3M131 19h2M135 19h2M139 19h1M143 19h1M146 19h1M80 20h1M83 20h1M98 20h2M101 20h1M136 20h1M139 20h1M142 20h5M18 21h2M79 21h5M97 21h3M101 21h2M105 21h1M142 21h2M79 22h2M97 22h2M102 22h1M105 22h1M138 22h2M142 22h1M144 22h3M14 23h2M75 23h1M79 23h1M81 23h3M106 23h1M112 23h3M144 23h4M14 24h1M70 24h2M75 24h2M81 24h4M105 24h2M114 24h1M145 24h4M69 25h3M75 25h1M82 25h4M17 26h1M71 26h3M7 27h2M11 27h1M14 27h1M16 27h1M69 27h2M72 27h1M109 27h1M112 27h1M7 28h1M9 28h2M16 28h1M69 28h3M108 28h5M8 29h1M14 29h2M17 29h1M69 29h2M108 29h3M113 29h1M9 30h1M69 30h2M109 30h1M111 30h4M12 31h1M111 31h5" />
<path stroke="#f99f1b" d="M12 2h1M20 4h1M12 6h4M11 7h4M16 7h1M10 8h4M15 8h1M17 8h1M19 8h3M24 8h1M10 9h3M14 9h1M16 9h3M20 9h2M10 10h2M14 10h3M19 10h2M10 11h1M12 11h2M16 11h1M24 11h1M12 13h3M17 13h1M12 14h2M17 14h1M13 15h2M12 16h3M12 17h4M11 18h4M16 18h2M12 19h2M15 19h1M17 19h2M13 20h1M16 20h3M12 21h2M17 21h1M12 22h3M17 22h1M12 23h2M16 23h3M11 24h2M16 24h2M10 25h4M15 25h3M9 26h1M11 26h2M15 26h1M9 27h1" />
<path stroke="#f9a01b" d="M44 2h1M76 2h1M108 2h1M140 2h1M11 3h1M19 3h1M43 3h1M51 3h1M75 3h1M83 3h1M107 3h1M115 3h1M139 3h1M147 3h1M52 4h1M84 4h1M116 4h1M148 4h1M44 6h3M75 6h3M140 6h3M44 7h1M46 7h2M75 7h1M77 7h2M107 7h4M140 7h1M142 7h2M43 8h3M47 8h1M74 8h8M103 8h5M109 8h2M139 8h3M143 8h1M15 9h1M19 9h1M42 9h5M48 9h1M73 9h2M76 9h4M107 9h4M138 9h5M12 10h1M41 10h3M47 10h2M73 10h2M76 10h6M102 10h5M112 10h3M137 10h3M143 10h2M11 11h1M17 11h1M43 11h4M74 11h9M102 11h6M113 11h3M139 11h4M11 12h3M42 12h4M76 12h3M80 12h5M103 12h5M113 12h3M138 12h4M11 13h1M42 13h4M76 13h4M81 13h3M85 13h1M105 13h2M112 13h3M138 13h4M14 14h1M18 14h1M44 14h3M76 14h5M82 14h2M85 14h1M107 14h4M139 14h4M12 15h1M15 15h1M44 15h3M76 15h5M84 15h1M107 15h3M138 15h9M11 16h1M15 16h1M42 16h5M75 16h9M106 16h5M138 16h8M147 16h2M11 17h1M16 17h1M42 17h4M75 17h8M84 17h2M106 17h5M139 17h6M146 17h3M15 18h1M42 18h4M75 18h7M83 18h3M106 18h6M137 18h1M139 18h3M145 18h3M14 19h1M16 19h1M43 19h3M76 19h3M82 19h3M107 19h6M137 19h2M140 19h2M144 19h2M12 20h1M14 20h1M43 20h3M76 20h3M81 20h2M102 20h3M106 20h3M110 20h3M137 20h2M140 20h1M14 21h1M43 21h3M76 21h2M103 21h2M106 21h2M111 21h3M138 21h3M18 22h1M44 22h1M75 22h3M103 22h2M106 22h2M111 22h3M42 23h4M73 23h2M76 23h1M104 23h2M41 24h4M72 24h3M112 24h2M40 25h4M72 25h3M111 25h3M10 26h1M16 26h1M39 26h3M110 26h3M15 27h1M39 27h2M110 27h2" />
<path stroke="#df5326" d="M10 3h1M11 4h1M13 4h1M11 5h1M11 6h1M19 7h1M18 11h1M18 29h1M19 30h1" />
<path stroke="#4fa045" d="M15 3h1M79 3h1M82 3h1M111 3h1M114 3h1M143 3h1M146 3h1M80 4h1M83 4h1M112 4h1M115 4h1M144 4h1M147 4h1M79 5h1M83 5h2M111 5h1M115 5h2M143 5h1M147 5h2M84 6h1M116 6h1M148 6h1M15 7h1M74 7h1M76 7h1M139 7h1M141 7h1M16 8h1M108 8h1M142 8h1M144 8h1M23 9h1M75 9h1M80 9h3M104 9h1M143 9h1M145 9h1M75 10h1M107 10h5M108 11h5M146 11h1M108 12h1M112 12h1M144 12h4M107 13h5M147 13h1M111 14h1M145 14h2M134 16h1M135 17h1M99 18h1M135 18h1M100 19h1M100 20h1M144 21h2M81 22h2M143 22h1M80 23h1M69 26h2M71 27h1M16 29h1M111 29h2M8 30h1M16 30h1M110 30h1" />
<path stroke="#50a145" d="M18 3h1M47 3h1M50 3h1M16 4h1M19 4h1M48 4h1M51 4h1M15 5h1M19 5h2M47 5h1M51 5h2M20 6h1M52 6h1M43 7h1M45 7h1M14 8h1M22 8h2M25 8h1M46 8h1M48 8h1M13 9h1M24 9h1M26 9h1M47 9h1M49 9h1M21 10h6M14 11h1M21 11h3M25 11h1M50 11h1M14 12h1M48 12h4M51 13h1M15 14h2M49 14h2M40 24h1M17 28h1M42 28h1M9 29h2M41 29h1M40 30h1" />
<path stroke="#000000" d="M18 4h1M18 5h1M44 5h2M16 6h1M19 6h1M47 6h1M17 7h1M48 7h1M13 10h1M44 10h3M47 13h4" />
<path stroke="#0d1c10" d="M50 4h1" />
<path stroke="#0c1c10" d="M82 4h1" />
<path stroke="#0c1c0f" d="M114 4h1" />
<path stroke="#140e0c" d="M146 4h1" />
<path stroke="#090a09" d="M50 5h1M114 5h1" />
<path stroke="#090909" d="M82 5h1" />
<path stroke="#311210" d="M140 5h1" />
<path stroke="#2a1411" d="M141 5h1" />
<path stroke="#2b0f13" d="M146 5h1" />
<path stroke="#182815" d="M51 6h1" />
<path stroke="#301c15" d="M78 6h1" />
<path stroke="#162816" d="M83 6h1" />
<path stroke="#242c15" d="M115 6h1" />
<path stroke="#252314" d="M143 6h1" />
<path stroke="#301c0f" d="M147 6h1" />
<path stroke="#4b1619" d="M79 7h1" />
<path stroke="#331116" d="M111 7h1" />
<path stroke="#1e1b10" d="M144 7h1" />
<path stroke="#2a0f14" d="M111 8h1" />
<path stroke="#50a245" d="M22 9h1M25 9h1" />
<path stroke="#2e2015" d="M105 9h1" />
<path stroke="#412015" d="M106 9h1" />
<path stroke="#5c140e" d="M112 9h1" />
<path stroke="#351b12" d="M140 10h1" />
<path stroke="#191514" d="M141 10h1" />
<path stroke="#38251f" d="M142 10h1" />
<path stroke="#36201c" d="M79 12h1" />
<path stroke="#0e160e" d="M109 12h1" />
<path stroke="#080d0a" d="M110 12h1" />
<path stroke="#0e1c10" d="M111 12h1" />
<path stroke="#351e1c" d="M80 13h1" />
<path stroke="#351211" d="M143 13h1" />
<path stroke="#0a0f0b" d="M144 13h1" />
<path stroke="#0d160e" d="M145 13h1" />
<path stroke="#0c2013" d="M146 13h1" />
<path stroke="#f9a038" d="M43 14h1" />
<path stroke="#150e11" d="M81 14h1" />
<path stroke="#f99e3a" d="M43 15h1" />
<path stroke="#080b11" d="M81 15h1" />
<path stroke="#271210" d="M82 15h1" />
<path stroke="#391f1b" d="M145 17h1" />
<path stroke="#1a120e" d="M142 18h1" />
<path stroke="#0e0f0e" d="M143 18h1" />
<path stroke="#29211b" d="M144 18h1" />
<path stroke="#140a0a" d="M142 19h1" />
<path stroke="#cc4727" d="M44 30h1" />
</svg>
