<svg xmlns="http://www.w3.org/2000/svg" viewBox="0 -0.5 16 16" shape-rendering="crispEdges">
<metadata>Made with Pixels to Svg http://codepen.io/shshaw/pen/XbxvNj</metadata>
<path stroke="#000000" d="M0 0h2M3 0h3M7 0h1M9 0h2M12 0h4M0 1h1M4 1h1M7 1h2M11 1h5M11 2h5M10 3h1M12 3h4M12 4h4M0 5h1M9 5h1M11 5h1M14 5h2M10 6h1M12 6h4M0 7h1M7 7h1M13 7h3M11 8h2M14 8h2M3 9h1M7 9h2M10 9h6M1 10h1M6 10h1M9 10h1M11 10h1M13 10h3M0 11h1M5 11h1M8 11h1M13 11h3M0 12h2M7 12h1M11 12h5M0 13h1M2 13h1M4 13h12M0 14h16M0 15h16" />
<path stroke="#67a2fd" d="M2 0h1M6 0h1M10 1h1M4 2h1M0 3h1M2 4h1M5 4h1M2 7h1" />
<path stroke="#128195" d="M8 0h1M11 0h1M1 1h3M6 1h1M9 1h1M0 2h4M5 2h6M1 3h9M11 3h1M0 4h2M3 4h2M6 4h6M1 5h8M10 5h1M12 5h2M0 6h10M11 6h1M1 7h1M3 7h4M8 7h5M0 8h11M13 8h1M0 9h3M4 9h3M9 9h1M0 10h1M2 10h4M7 10h2M10 10h1M12 10h1M1 11h4M6 11h2M9 11h1M2 12h5M9 12h1M1 13h1M3 13h1" />
<path stroke="#007d95" d="M5 1h1" />
<path stroke="#08181a" d="M10 11h1" />
<path stroke="#010404" d="M11 11h1" />
<path stroke="#030c0e" d="M12 11h1" />
<path stroke="#000409" d="M8 12h1" />
<path stroke="#060706" d="M10 12h1" />
</svg>
