<svg xmlns="http://www.w3.org/2000/svg" viewBox="0 -0.5 16 16" shape-rendering="crispEdges">
<metadata>Made with Pixels to Svg http://codepen.io/shshaw/pen/XbxvNj</metadata>
<path stroke="#000000" d="M0 0h16M0 1h16M0 2h3M4 2h12M0 3h8M9 3h2M12 3h4M0 4h2M3 4h1M8 4h1M11 4h1M13 4h3M0 5h2M4 5h4M9 5h2M12 5h4M0 6h4M5 6h1M7 6h1M12 6h1M14 6h2M0 7h2M3 7h2M6 7h1M9 7h1M13 7h1M15 7h1M0 8h4M5 8h1M7 8h1M14 8h2M0 9h5M9 9h1M12 9h1M14 9h2M0 10h2M3 10h1M5 10h1M8 10h1M11 10h1M13 10h1M15 10h1M0 11h3M4 11h1M6 11h1M13 11h3M0 12h6M7 12h3M11 12h3M15 12h1M0 13h2M3 13h4M8 13h2M11 13h1M13 13h3M0 14h5M6 14h10M0 15h16" />
<path stroke="#0490a4" d="M3 2h1M8 3h1M11 3h1M4 4h1M7 4h1M9 4h2M12 4h1M3 5h1M8 5h1M11 5h1M4 6h1M6 6h1M9 6h3M13 6h1M2 7h1M5 7h1M7 7h2M10 7h1M12 7h1M14 7h1M4 8h1M6 8h1M8 8h6M5 9h4M10 9h2M13 9h1M2 10h1M4 10h1M6 10h2M9 10h2M12 10h1M14 10h1M3 11h1M5 11h1M7 11h3M12 11h1M6 12h1M10 12h1M14 12h1M2 13h1M7 13h1M10 13h1M12 13h1M5 14h1" />
<path stroke="#000101" d="M2 4h1" />
<path stroke="#070404" d="M5 4h1" />
<path stroke="#040508" d="M6 4h1" />
<path stroke="#080e10" d="M2 5h1" />
<path stroke="#6eb6e4" d="M8 6h1M11 7h1" />
<path stroke="#0a0c0c" d="M10 11h1" />
<path stroke="#050709" d="M11 11h1" />
</svg>
