<svg xmlns="http://www.w3.org/2000/svg" viewBox="0 -0.5 16 16" shape-rendering="crispEdges">
<metadata>Made with Pixels to Svg http://codepen.io/shshaw/pen/XbxvNj</metadata>
<path stroke="#010101" d="M0 0h3M13 0h3M0 1h3M13 1h3M0 2h3M13 2h3M0 3h3M13 3h3M0 4h3M13 4h3M0 5h3M13 5h3M0 6h3M13 6h3M0 7h3M13 7h3M0 8h3M13 8h3M0 9h3M13 9h3M0 10h3M13 10h3M0 11h3M13 11h3M0 12h3M13 12h3M0 13h3M13 13h3M0 14h3M13 14h3M0 15h3M13 15h3" />
<path stroke="#0490a4" d="M3 0h1M9 0h1M11 0h2M3 1h1M9 1h1M11 1h2M3 2h1M9 2h1M11 2h2M3 3h1M9 3h1M11 3h2M3 4h1M9 4h1M11 4h2M3 5h1M9 5h1M11 5h2M3 6h1M9 6h1M11 6h2M3 7h1M9 7h1M11 7h2M3 8h1M9 8h1M11 8h2M3 9h1M9 9h1M11 9h2M3 10h1M9 10h1M11 10h2M3 11h1M9 11h1M11 11h2M3 12h1M9 12h1M11 12h2M3 13h1M9 13h1M11 13h2M3 14h1M9 14h1M11 14h2M3 15h1M9 15h1M11 15h2" />
<path stroke="#344ba0" d="M4 0h2M7 0h2M10 0h1M4 1h2M7 1h2M10 1h1M4 2h2M7 2h2M10 2h1M4 3h2M7 3h2M10 3h1M4 4h2M7 4h2M10 4h1M4 5h2M7 5h2M10 5h1M4 6h2M7 6h2M10 6h1M4 7h2M7 7h2M10 7h1M4 8h2M7 8h2M10 8h1M4 9h2M7 9h2M10 9h1M4 10h2M7 10h2M10 10h1M4 11h2M7 11h2M10 11h1M4 12h2M7 12h2M10 12h1M4 13h2M7 13h2M10 13h1M4 14h2M7 14h2M10 14h1M4 15h2M7 15h2M10 15h1" />
<path stroke="#6eb6e4" d="M6 0h1M6 1h1M6 2h1M6 3h1M6 4h1M6 5h1M6 6h1M6 7h1M6 8h1M6 9h1M6 10h1M6 11h1M6 12h1M6 13h1M6 14h1M6 15h1" />
</svg>
