<svg xmlns="http://www.w3.org/2000/svg" viewBox="0 -0.5 16 16" shape-rendering="crispEdges">
<metadata>Made with Pixels to Svg http://codepen.io/shshaw/pen/XbxvNj</metadata>
<path stroke="#000000" d="M0 0h1M7 0h2M15 0h1M12 3h1M5 6h7M0 7h1M15 7h1M0 8h1M5 8h7M15 8h1M5 10h7M3 12h1M12 12h1M0 15h1M7 15h2M15 15h1" />
<path stroke="#6eb6e4" d="M1 0h6M9 0h6M0 1h15M0 2h2M0 3h2M0 4h2M0 5h2M4 5h4M0 6h2M1 7h1M4 7h4M1 8h1M0 9h2M4 9h4M0 10h2M0 11h2M0 12h2M0 13h2M0 14h1" />
<path stroke="#0490a4" d="M15 1h1M14 2h2M14 3h2M14 4h2M8 5h4M14 5h2M14 6h2M8 7h4M14 7h1M14 8h1M8 9h4M14 9h2M14 10h2M14 11h2M14 12h2M14 13h2M1 14h15M1 15h6M9 15h6" />
<path stroke="#344ba0" d="M2 2h1M4 2h10M2 3h1M4 3h8M13 3h1M2 4h12M2 5h2M12 5h2M2 6h3M12 6h2M2 7h2M12 7h2M2 8h3M12 8h2M2 9h2M12 9h2M2 10h3M12 10h2M2 11h12M2 12h1M4 12h8M13 12h1M2 13h12" />
<path stroke="#354ca0" d="M3 2h1" />
<path stroke="#0c123e" d="M3 3h1" />
</svg>
