<svg xmlns="http://www.w3.org/2000/svg" viewBox="0 -0.5 16 16" shape-rendering="crispEdges">
<metadata>Made with Pixels to Svg http://codepen.io/shshaw/pen/XbxvNj</metadata>
<path stroke="#000000" d="M0 0h16M0 1h1M0 6h1M0 7h16M0 8h14M15 8h1M7 9h2M7 14h2M0 15h16" />
<path stroke="#bcbcbc" d="M1 1h7M9 1h6M0 2h1M14 2h2M1 3h1M3 3h5M9 3h1M11 3h3M1 4h3M6 4h3M10 4h1M13 4h1M1 9h2M4 9h2M9 9h3M14 9h2M6 10h3M0 11h2M4 11h3M9 11h3M13 11h2M0 12h4M9 12h1M11 12h5" />
<path stroke="#bcbcbd" d="M8 1h1M14 3h1M9 4h1M0 9h1M3 11h1M12 11h1M15 11h1M10 12h1" />
<path stroke="#010101" d="M15 1h1M15 6h1M14 8h1" />
<path stroke="#ffffff" d="M1 2h13M0 3h1M0 10h6M9 10h7M8 11h1" />
<path stroke="#bdbdbd" d="M2 3h1M8 3h1M10 3h1M4 4h2M11 4h2M3 9h1M6 9h1M12 9h2M2 11h1M4 12h2" />
<path stroke="#808080" d="M15 3h1M0 4h1M14 4h1M4 5h2M15 5h1M3 6h1M11 6h1M8 12h1M3 13h1M11 13h1M3 14h1M5 14h1M12 14h2" />
<path stroke="#7f7f7f" d="M15 4h1M0 5h4M6 5h1M8 5h7M1 6h2M4 6h1M8 6h3M12 6h2M7 11h1M0 13h1M4 13h5M10 13h1M12 13h1M14 13h1M0 14h3M4 14h1M9 14h3M14 14h2" />
<path stroke="#807f7f" d="M7 5h1M5 6h3M14 6h1M6 12h2M1 13h2M9 13h1M13 13h1M15 13h1M6 14h1" />
</svg>
