<svg xmlns="http://www.w3.org/2000/svg" viewBox="0 -0.5 16 16" shape-rendering="crispEdges">
<metadata>Made with Pixels to Svg http://codepen.io/shshaw/pen/XbxvNj</metadata>
<path stroke="#000000" d="M0 0h1M8 0h2M15 0h1M8 1h1M0 2h1M5 2h2M0 3h1M2 3h4M8 3h1M12 3h4M0 4h1M2 4h1M7 4h6M0 5h3M0 6h4M5 6h1M14 6h2M0 7h5M7 7h4M15 7h1M0 8h9M0 9h6M7 9h1M0 10h9M13 10h2M0 11h8M10 11h4M0 12h9M10 12h1M15 12h1M0 13h11M0 14h12M13 14h1M0 15h13M15 15h1" />
<path stroke="#6eb6e4" d="M1 0h1M3 0h5M10 0h5M0 1h1M4 1h2M9 1h4M15 1h1M2 2h3M7 2h4M6 3h2M9 3h3M1 4h1M3 4h4M13 4h3M3 5h4M8 5h5M4 6h1M6 6h2M10 6h1M12 6h2M5 7h2M9 8h1M11 8h5M8 9h2M12 9h2M10 10h3M15 10h1M14 11h2M9 12h1M11 12h4M11 13h4M12 14h1M14 14h2M13 15h2" />
<path stroke="#0490a4" d="M2 0h1M2 1h2M6 1h2M13 1h2M1 2h1M11 2h5M1 3h1M7 5h1M13 5h3M8 6h2M11 6h1M11 7h4M10 8h1M10 9h2M14 9h2M9 10h1M9 11h1M15 13h1" />
<path stroke="#77b7e4" d="M1 1h1" />
<path stroke="#010101" d="M6 9h1" />
<path stroke="#040605" d="M8 11h1" />
</svg>
