<svg xmlns="http://www.w3.org/2000/svg" viewBox="0 -0.5 16 16" shape-rendering="crispEdges">
<metadata>Made with Pixels to Svg http://codepen.io/shshaw/pen/XbxvNj</metadata>
<path stroke="#6eb6e4" d="M0 0h1M8 0h1M0 2h2M8 3h2M0 8h1M0 11h2" />
<path stroke="#0490a4" d="M1 0h2M6 0h2M10 0h3M15 0h1M0 1h8M11 1h4M5 2h2M8 2h2M13 2h2M4 3h3M10 3h2M13 3h1M2 4h2M10 4h4M0 5h1M5 5h7M6 6h4M0 7h6M8 7h1M2 8h3M7 8h1M3 9h4M0 10h2M5 10h2M2 11h2M5 11h1M2 12h4M0 13h4M1 14h1M0 15h1" />
<path stroke="#000000" d="M3 0h3M9 0h1M13 0h2M8 1h3M15 1h1M2 2h3M7 2h1M10 2h3M15 2h1M0 3h4M7 3h1M12 3h1M14 3h2M0 4h2M4 4h6M14 4h2M1 5h4M12 5h4M0 6h6M10 6h6M7 7h1M9 7h7M1 8h1M6 8h1M8 8h8M0 9h3M7 9h9M2 10h3M7 10h9M4 11h1M6 11h10M0 12h2M6 12h10M4 13h12M0 14h1M2 14h14M1 15h15" />
<path stroke="#0a1012" d="M6 7h1" />
<path stroke="#0a1a1d" d="M5 8h1" />
</svg>
